Coordinates
nRows=243
nColumns=2
inDegrees=yes
endheader
time	ankle_angle_r	
2.79435	  0.043094	
2.82762	  0.005456	
2.86089	 -0.024428	
2.89415	 -0.043265	
2.92742	 -0.048423	
2.96069	 -0.038735	
2.99395	 -0.017048	
3.02722	  0.004328	
3.06048	  0.004638	
3.09375	 -0.020369	
3.12702	 -0.049820	
3.16028	 -0.067409	
3.19355	 -0.073929	
3.22681	 -0.069444	
3.26008	 -0.051900	
3.29335	 -0.032201	
3.32661	 -0.029807	
3.35988	 -0.046948	
3.39315	 -0.062035	
3.42641	 -0.060250	
3.45968	 -0.052850	
3.49294	 -0.055650	
3.52621	 -0.065657	
3.55948	 -0.067483	
3.59274	 -0.053937	
3.62601	 -0.034884	
3.65927	 -0.026161	
3.69254	 -0.031313	
3.72581	 -0.041016	
3.75907	 -0.044707	
3.79234	 -0.036459	
3.8256	 -0.025749	
3.85887	 -0.030102	
3.89214	 -0.043179	
3.9254	 -0.043813	
3.95867	 -0.032538	
3.99194	 -0.026781	
4.0252	 -0.034173	
4.05847	 -0.048466	
4.09173	 -0.062833	
4.125	 -0.075156	
4.15827	 -0.082943	
4.19153	 -0.085411	
4.2248	 -0.084055	
4.25806	 -0.073556	
4.29133	 -0.051274	
4.3246	 -0.031846	
4.35786	 -0.027558	
4.39113	 -0.032442	
4.4244	 -0.040930	
4.45766	 -0.053742	
4.49093	 -0.062257	
4.52419	 -0.053144	
4.55746	 -0.027346	
4.59073	 -0.002242	
4.62399	  0.003997	
4.65726	 -0.009614	
4.69052	 -0.025100	
4.72379	 -0.027847	
4.75706	 -0.021735	
4.79032	 -0.016108	
4.82359	 -0.016924	
4.85685	 -0.029415	
4.89012	 -0.049900	
4.92339	 -0.061542	
4.95665	 -0.054878	
4.98992	 -0.044989	
5.02319	 -0.049468	
5.05645	 -0.065284	
5.08972	 -0.082052	
5.12298	 -0.093485	
5.15625	 -0.094889	
5.18952	 -0.087965	
5.22278	 -0.080258	
5.25605	 -0.076060	
5.28931	 -0.074875	
5.32258	 -0.073663	
5.35585	 -0.068671	
5.38911	 -0.059153	
5.42238	 -0.047067	
5.45565	 -0.037645	
5.48891	 -0.042036	
5.52218	 -0.063286	
5.55544	 -0.083175	
5.58871	 -0.083418	
5.62198	 -0.067705	
5.65524	 -0.050155	
5.68851	 -0.041790	
5.72177	 -0.047023	
5.75504	 -0.056568	
5.78831	 -0.054480	
5.82157	 -0.037875	
5.85484	 -0.020881	
5.8881	 -0.017120	
5.92137	 -0.024152	
5.95464	 -0.031592	
5.9879	 -0.032804	
6.02117	 -0.025979	
6.05444	 -0.017079	
6.0877	 -0.013323	
6.12097	 -0.012922	
6.15423	 -0.011887	
6.1875	 -0.010880	
6.22077	 -0.011248	
6.25403	 -0.009632	
6.2873	  0.000079	
6.32056	  0.012823	
6.35383	  0.012430	
6.3871	 -0.003779	
6.42036	 -0.019569	
6.45363	 -0.025104	
6.4869	 -0.029517	
6.52016	 -0.043498	
6.55343	 -0.062240	
6.58669	 -0.073326	
6.61996	 -0.072559	
6.65323	 -0.067095	
6.68649	 -0.067685	
6.71976	 -0.075726	
6.75302	 -0.081686	
6.78629	 -0.076156	
6.81956	 -0.054665	
6.85282	 -0.023917	
6.88609	 -0.005602	
6.91935	 -0.015499	
6.95262	 -0.042070	
6.98589	 -0.059235	
7.01915	 -0.056101	
7.05242	 -0.045447	
7.08569	 -0.047711	
7.11895	 -0.070116	
7.15222	 -0.095682	
7.18548	 -0.099136	
7.21875	 -0.074810	
7.25202	 -0.039999	
7.28528	 -0.019021	
7.31855	 -0.025095	
7.35181	 -0.052085	
7.38508	 -0.083969	
7.41835	 -0.102465	
7.45161	 -0.092538	
7.48488	 -0.060269	
7.51815	 -0.032713	
7.55141	 -0.024780	
7.58468	 -0.025178	
7.61794	 -0.023040	
7.65121	 -0.025764	
7.68448	 -0.040494	
7.71774	 -0.054772	
7.75101	 -0.052992	
7.78427	 -0.040803	
7.81754	 -0.033680	
7.85081	 -0.036198	
7.88407	 -0.043686	
7.91734	 -0.047792	
7.9506	 -0.045515	
7.98387	 -0.045252	
8.01714	 -0.050064	
8.0504	 -0.051935	
8.08367	 -0.050073	
8.11694	 -0.051547	
8.1502	 -0.054609	
8.18347	 -0.049724	
8.21673	 -0.035295	
8.25	 -0.022652	
8.28327	 -0.022390	
8.31653	 -0.028832	
8.3498	 -0.029750	
8.38306	 -0.026586	
8.41633	 -0.029281	
8.4496	 -0.039867	
8.48286	 -0.050312	
8.51613	 -0.049774	
8.5494	 -0.034883	
8.58266	 -0.014826	
8.61593	 -0.001618	
8.64919	 -0.000213	
8.68246	 -0.007117	
8.71573	 -0.009111	
8.74899	  0.003294	
8.78226	  0.018670	
8.81552	  0.021390	
8.84879	  0.011463	
8.88206	 -0.004013	
8.91532	 -0.018627	
8.94859	 -0.028948	
8.98185	 -0.036407	
9.01512	 -0.043594	
9.04839	 -0.054877	
9.08165	 -0.068527	
9.11492	 -0.069224	
9.14819	 -0.051174	
9.18145	 -0.029937	
9.21472	 -0.016944	
9.24798	 -0.008464	
9.28125	 -0.001058	
9.31452	  0.002009	
9.34778	 -0.002624	
9.38105	 -0.015885	
9.41431	 -0.035153	
9.44758	 -0.050356	
9.48085	 -0.049248	
9.51411	 -0.029594	
9.54738	 -0.003981	
9.58065	  0.008892	
9.61391	  0.002656	
9.64718	 -0.011549	
9.68044	 -0.022163	
9.71371	 -0.027959	
9.74698	 -0.033453	
9.78024	 -0.041341	
9.81351	 -0.044587	
9.84677	 -0.034794	
9.88004	 -0.016011	
9.91331	  0.005199	
9.94657	  0.026783	
9.97984	  0.044723	
10.0131	  0.055772	
10.0464	  0.060233	
10.0796	  0.061577	
10.1129	  0.061776	
10.1462	  0.051294	
10.1794	  0.021292	
10.2127	 -0.016507	
10.246	 -0.040936	
10.2792	 -0.042776	
10.3125	 -0.030636	
10.3458	 -0.022562	
10.379	 -0.024724	
10.4123	 -0.024952	
10.4456	 -0.017941	
10.4788	 -0.016859	
10.5121	 -0.031924	
10.5454	 -0.058795	
10.5786	 -0.086420	
10.6119	 -0.103119	
10.6452	 -0.104031	
10.6784	 -0.090440	
10.7117	 -0.060720	
10.745	 -0.023071	
10.7782	 -0.004455	
10.8115	 -0.023011	
10.8448	 -0.068163	
